# File created by Blade
# Date/Time:  Thu Sep 25 19:36:54 2014
# Frame Rate: 120.000 fps
#------------------------------------------------------
:FULLY-SPECIFIED
:DEGREES
843
root -0.160960 34.230526 0.833722 66.575831 -16.604533 -31.666493
Spine -28.226008 1.497285 17.236337
Head -29.001963 29.532512 12.465933
LeftShoulder -12.535793 16.821056 26.363250
LeftArm 41.356645 -19.494642 -26.980149
LeftForeArm 16.717613 -0.000000 25.735519
LeftHand -26.873056 0.000000 -3.217316
LeftHandThumb1 -26.253704 0.000000 33.147579
RightShoulder -26.101451 0.197236 -31.003520
RightArm -30.334854 -23.801309 54.424601
RightForeArm -42.264131 -0.000000 11.928605
RightHand 0.101123 -0.000000 21.675797
RightHandThumb1 -24.326973 -0.000000 -32.862282
LeftUpLeg -48.066221 23.468920 10.567686
LeftLeg -10.115178 -0.000000 0.000000
LeftFoot -6.447578 22.658374 -8.956248
LeftToeBase 8.565728 -0.000000 -0.000000
RightUpLeg 20.343266 26.059104 -29.429552
RightLeg 98.727367 -0.000000 -0.000000
RightFoot 28.631867 -17.593612 17.370026
RightToeBase 10.498518 -0.000000 -0.000000
844
root -0.160479 34.222767 0.901590 65.961314 -16.884693 -31.507827
Spine -28.048338 1.538894 17.357075
Head -28.637373 29.660618 12.314025
LeftShoulder -12.361122 16.903510 26.005993
LeftArm 41.079695 -18.540575 -27.502947
LeftForeArm 17.025186 -0.000000 26.383152
LeftHand -26.807661 -0.000000 -3.466299
LeftHandThumb1 -26.253704 0.000000 33.147579
RightShoulder -26.129092 0.133246 -30.964730
RightArm -30.246454 -23.808467 54.493279
RightForeArm -42.130002 -0.000000 11.950293
RightHand 0.105697 -0.000000 21.749552
RightHandThumb1 -24.326973 -0.000000 -32.862282
LeftUpLeg -47.324736 23.268086 10.542380
LeftLeg -10.062011 -0.000000 0.000000
LeftFoot -6.631394 22.661416 -9.086560
LeftToeBase 8.710949 -0.000000 -0.000000
RightUpLeg 20.309625 26.094558 -29.305401
RightLeg 98.857787 -0.000000 -0.000000
RightFoot 28.580520 -17.573763 17.335120
RightToeBase 10.519803 -0.000000 -0.000000
845
root -0.156069 34.215656 0.968172 65.353712 -17.149064 -31.329927
Spine -27.891381 1.500243 17.538669
Head -28.255684 29.782084 12.152420
LeftShoulder -12.308793 17.090920 25.552586
LeftArm 40.890524 -17.606110 -27.949095
LeftForeArm 17.267475 0.000000 26.966013
LeftHand -26.681120 0.000000 -3.832854
LeftHandThumb1 -26.253704 0.000000 33.147579
RightShoulder -26.015643 0.295295 -30.952452
RightArm -30.404643 -23.916081 54.611234
RightForeArm -41.997138 -0.000000 11.968190
RightHand 0.123948 -0.000000 21.690216
RightHandThumb1 -24.326973 -0.000000 -32.862282
LeftUpLeg -46.612496 23.005043 10.535883
LeftLeg -9.974075 -0.000000 0.000000
LeftFoot -6.779742 22.750617 -9.134885
LeftToeBase 8.729968 -0.000000 -0.000000
RightUpLeg 20.246550 26.118145 -29.195446
RightLeg 98.982760 -0.000000 -0.000000
RightFoot 28.565614 -17.556859 17.310594
RightToeBase 10.629863 -0.000000 -0.000000
846
root -0.154211 34.207351 1.037587 64.703167 -17.439265 -31.144850
Spine -27.672527 1.517892 17.626947
Head -27.872906 29.915782 12.086060
LeftShoulder -12.275286 17.299344 25.055718
LeftArm 40.842366 -16.677299 -28.252566
LeftForeArm 17.457049 -0.000000 27.417310
LeftHand -26.373240 -0.000000 -4.285642
LeftHandThumb1 -26.253704 0.000000 33.147579
RightShoulder -26.082750 0.317831 -30.888687
RightArm -30.333890 -24.010401 54.686011
RightForeArm -41.831780 -0.000000 11.929970
RightHand 0.149708 -0.000000 21.619437
RightHandThumb1 -24.326973 -0.000000 -32.862282
LeftUpLeg -45.856811 22.776975 10.480430
LeftLeg -9.900914 -0.000000 0.000000
LeftFoot -6.925646 22.757135 -9.211184
LeftToeBase 8.758206 -0.000000 -0.000000
RightUpLeg 20.234375 26.176555 -29.085377
RightLeg 99.090435 -0.000000 -0.000000
RightFoot 28.515991 -17.501534 17.342540
RightToeBase 10.587353 -0.000000 -0.000000
